<mxfile host="app.diagrams.net" agent="Mozilla/5.0 (Windows NT 10.0; Win64; x64) AppleWebKit/537.36 (KHTML, like Gecko) Chrome/131.0.0.0 Safari/537.36" version="26.0.6">
  <diagram name="Page-1" id="x-wuTn8S6Lkxwc08Q7pB">
    <mxGraphModel dx="794" dy="2750" grid="1" gridSize="10" guides="1" tooltips="1" connect="1" arrows="1" fold="1" page="1" pageScale="1" pageWidth="827" pageHeight="1169" math="0" shadow="0">
      <root>
        <mxCell id="0" />
        <mxCell id="1" parent="0" />
        <mxCell id="GiEpgFDjxytjR3Tgd_KI-4" value="" style="edgeStyle=orthogonalEdgeStyle;rounded=0;orthogonalLoop=1;jettySize=auto;html=1;" edge="1" parent="1" source="GiEpgFDjxytjR3Tgd_KI-1" target="GiEpgFDjxytjR3Tgd_KI-3">
          <mxGeometry relative="1" as="geometry" />
        </mxCell>
        <mxCell id="GiEpgFDjxytjR3Tgd_KI-1" value="&lt;b&gt;&lt;font style=&quot;font-size: 17px;&quot;&gt;start&lt;/font&gt;&lt;/b&gt;" style="strokeWidth=2;html=1;shape=mxgraph.flowchart.start_1;whiteSpace=wrap;fillColor=#d5e8d4;strokeColor=#82b366;" vertex="1" parent="1">
          <mxGeometry x="360" y="-1550" width="120" height="70" as="geometry" />
        </mxCell>
        <mxCell id="GiEpgFDjxytjR3Tgd_KI-23" value="" style="edgeStyle=orthogonalEdgeStyle;rounded=0;orthogonalLoop=1;jettySize=auto;html=1;" edge="1" parent="1" source="GiEpgFDjxytjR3Tgd_KI-3" target="GiEpgFDjxytjR3Tgd_KI-22">
          <mxGeometry relative="1" as="geometry" />
        </mxCell>
        <mxCell id="GiEpgFDjxytjR3Tgd_KI-3" value="&lt;b&gt;&lt;font style=&quot;font-size: 14px;&quot;&gt;Print&amp;nbsp;&lt;/font&gt;&lt;/b&gt;&lt;div&gt;&quot;&lt;b&gt;&lt;font style=&quot;font-size: 15px;&quot;&gt;Alsaeed&lt;/font&gt;&lt;/b&gt;&quot;&lt;/div&gt;" style="shape=parallelogram;perimeter=parallelogramPerimeter;whiteSpace=wrap;html=1;fixedSize=1;strokeWidth=2;fillColor=#fff2cc;strokeColor=#d6b656;" vertex="1" parent="1">
          <mxGeometry x="270" y="-1400" width="300" height="70" as="geometry" />
        </mxCell>
        <mxCell id="GiEpgFDjxytjR3Tgd_KI-22" value="End&amp;nbsp;" style="ellipse;whiteSpace=wrap;html=1;fillColor=#dae8fc;strokeColor=#6c8ebf;strokeWidth=2;" vertex="1" parent="1">
          <mxGeometry x="360" y="-1255" width="120" height="65" as="geometry" />
        </mxCell>
      </root>
    </mxGraphModel>
  </diagram>
</mxfile>
